<?xml version="1.0" encoding="UTF-8"?>
<svg width="100px" height="23px" viewBox="0 0 100 23" version="1.1" xmlns="http://www.w3.org/2000/svg" xmlns:xlink="http://www.w3.org/1999/xlink">
    <title>logo</title>
    <g id="飞机稿" stroke="none" stroke-width="1" fill="none" fill-rule="evenodd">
        <g id="logo" fill="#191919">
            <path d="M34.131107,22.3712995 L31.886209,22.3712995 C31.7563389,22.3712995 31.6450216,22.2661666 31.6450216,22.1301121 L31.6450216,16.026216 C31.6450216,14.0596112 30.1546073,12.3527467 28.1941868,12.2166922 C25.9307359,12.0559006 24.0568955,13.9359254 24.2176871,16.1931919 C24.3537415,18.1597967 26.0606061,19.6440268 28.0272109,19.6440268 L30.1175015,19.6440268 C30.2473717,19.6440268 30.3586889,19.7491598 30.3586889,19.8852142 L30.3586889,22.1301121 C30.3586889,22.2599823 30.253556,22.3712995 30.1175015,22.3712995 L28.0581323,22.3712995 C24.533086,22.3712995 21.5584416,19.5945525 21.4842301,16.0695061 C21.4038343,12.402221 24.4032158,9.40283942 28.0705009,9.48323521 C31.5955473,9.56363101 34.3722944,12.5320911 34.3722944,16.0571375 L34.3722944,22.1301121 C34.3722944,22.2599823 34.2671614,22.3712995 34.131107,22.3712995 L34.131107,22.3712995 Z" id="路径" fill-rule="nonzero"></path>
            <path d="M45.6462585,18.5308543 C44.9350649,19.3904708 43.8528139,19.9223199 42.6406926,19.8790299 C40.7359307,19.8048184 39.1651206,18.2525611 39.0723562,16.3477992 C38.9672233,14.2142185 40.6740878,12.4393267 42.7891156,12.4393267 C43.9393939,12.4393267 44.9659864,12.9649916 45.6462585,13.7875024 C45.72047,13.8740825 45.8379716,13.9050039 45.9369202,13.8555296 L47.9901051,12.84749 C48.1199753,12.7856471 48.1632653,12.6186712 48.0828695,12.5011697 C46.7903525,10.6396978 44.5392703,9.48323521 42.0531849,9.76152835 C39.0970934,10.0892958 36.7099567,12.4702482 36.3821892,15.4263397 C35.9492888,19.310075 38.9919604,22.6063026 42.7829314,22.6063026 C44.978355,22.6063026 46.9140383,21.5054987 48.0828695,19.8233713 C48.1632653,19.7058697 48.1199753,19.5388938 47.9901051,19.4770509 L45.9369202,18.4690113 C45.8379716,18.419537 45.72047,18.4504585 45.6462585,18.5370386 L45.6462585,18.5308543 Z" id="路径" fill-rule="nonzero"></path>
            <path d="M70.9029066,22.5444597 C67.3469388,22.5444597 64.4588745,19.6563954 64.4588745,16.1004275 C64.4588745,12.5444597 67.3469388,9.65639539 70.9029066,9.65639539 C74.4588745,9.65639539 77.3469388,12.5444597 77.3469388,16.1004275 C77.3469388,19.6563954 74.4588745,22.5444597 70.9029066,22.5444597 Z M70.9029066,12.3774838 C68.8497217,12.3774838 67.1799629,14.0472426 67.1799629,16.1004275 C67.1799629,18.1536125 68.8497217,19.8233713 70.9029066,19.8233713 C72.9560915,19.8233713 74.6258503,18.1536125 74.6258503,16.1004275 C74.6258503,14.0472426 72.9560915,12.3774838 70.9029066,12.3774838 Z" id="形状" fill-rule="nonzero"></path>
            <path d="M56.2275819,22.5444597 C52.5788497,22.6248555 49.5918367,19.6378425 49.6722325,15.9891103 C49.7526283,12.4826168 52.7087199,9.71823831 56.2152134,9.71823831 L58.305504,9.71823831 C58.4353741,9.71823831 58.5466914,9.82337127 58.5466914,9.95942569 L58.5466914,12.148665 C58.5466914,12.2785352 58.4415584,12.3898524 58.305504,12.3898524 L56.1842919,12.3898524 C54.1991342,12.3898524 52.4799011,13.8926353 52.3438466,15.8716087 C52.183055,18.1536125 54.0754484,20.0398215 56.3574521,19.8790299 C58.3364255,19.7367912 59.8392084,18.0237423 59.8392084,16.0385846 L59.8392084,6.0571375 C59.8392084,5.92726737 59.9443414,5.81595012 60.0803958,5.81595012 L62.2696351,5.81595012 C62.3995053,5.81595012 62.5108225,5.92108308 62.5108225,6.0571375 L62.5108225,16.0014789 C62.5108225,19.5079724 59.746444,22.4702482 56.2399505,22.5444597 L56.2275819,22.5444597 Z" id="路径" fill-rule="nonzero"></path>
            <path d="M99.7588126,22.3712995 L97.5139147,22.3712995 C97.3840445,22.3712995 97.2727273,22.2661666 97.2727273,22.1301121 L97.2727273,16.026216 C97.2727273,14.0596112 95.7823129,12.3527467 93.8218924,12.2166922 C91.5584416,12.0559006 89.6846011,13.9359254 89.8453927,16.1931919 C89.9814471,18.1597967 91.6883117,19.6440268 93.6549165,19.6440268 L95.7452072,19.6440268 C95.8750773,19.6440268 95.9863946,19.7491598 95.9863946,19.8852142 L95.9863946,22.1301121 C95.9863946,22.2599823 95.8812616,22.3712995 95.7452072,22.3712995 L93.685838,22.3712995 C90.1607916,22.3712995 87.1861472,19.5945525 87.1119357,16.0695061 C87.0377242,12.5444597 90.0309215,9.40283942 93.6982066,9.48323521 C97.2232529,9.56363101 100,12.5320911 100,16.0571375 L100,22.1301121 C100,22.2599823 99.894867,22.3712995 99.7588126,22.3712995 L99.7588126,22.3712995 Z" id="路径" fill-rule="nonzero"></path>
            <path d="M81.7501546,22.1734022 L79.5609153,22.1734022 C79.4310451,22.1734022 79.3197279,22.0682692 79.3197279,21.9322148 L79.3197279,15.7231857 C79.3197279,12.1795865 82.1892393,9.31007504 85.7328386,9.31007504 L86.0977118,9.31007504 C86.2275819,9.31007504 86.3388992,9.415208 86.3388992,9.55126242 L86.3388992,11.7405018 C86.3388992,11.8703719 86.2337662,11.9816891 86.0977118,11.9816891 L85.7328386,11.9816891 C83.6611008,11.9816891 81.9851577,13.6576322 81.9851577,15.72937 L81.9851577,21.9383991 C81.9851577,22.0682692 81.8800247,22.1795865 81.7439703,22.1795865 L81.7501546,22.1734022 Z" id="路径" fill-rule="nonzero"></path>
            <g id="编组" transform="translate(0.000000, 0.000000)">
                <path d="M9.63512678,14.3997473 C9.90105133,14.4430373 10.1793445,14.4677745 10.4576376,14.4677745 C13.1168831,14.4677745 15.2875696,12.3898524 15.4421769,9.76771264 C15.4483612,9.60692105 15.3246753,9.47705092 15.1638837,9.47705092 L12.987013,9.47705092 C12.83859,9.47705092 12.7149041,9.59455247 12.7087199,9.74297547 C12.6159555,12.1177436 11.3172542,14.0472426 9.63512678,14.3997473 L9.63512678,14.3997473 Z" id="路径"></path>
                <path d="M19.5918367,6.87964832 C18.7631416,3.75658092 16.3388992,1.27667986 13.2282004,0.392326123 C7.62523191,-1.19703689 2.47990105,2.23524511 1.26159555,7.21360009 L1.26159555,7.21360009 C1.26159555,7.21360009 0.0865800866,12.0682692 0.0865800866,12.0682692 C0.0309214595,12.3032723 4.39420368e-15,12.5444597 4.39420368e-15,12.7856471 L4.39420368e-15,21.8208976 C4.39420368e-15,22.0249792 0.166975881,22.1919551 0.371057514,22.1919551 L9.51762523,22.1919551 C9.67841682,22.1919551 9.83920841,22.1362964 9.96907854,22.0311635 L16.2894249,16.9476755 L16.2894249,16.9476755 C19.1341991,14.733699 20.6802721,10.9365438 19.598021,6.87346403 L19.5918367,6.87964832 Z M10.5380334,16.2426663 C10.2782931,16.2426663 10.0185529,16.236482 9.76499691,16.2055605 C9.76499691,16.2055605 9.76499691,16.2055605 9.76499691,16.2055605 L9.76499691,18.2525611 C9.76499691,18.3824313 9.65986395,18.4937485 9.52380952,18.4937485 L3.96413111,18.4937485 C3.80952381,18.4937485 3.68583797,18.3700627 3.68583797,18.2154554 L3.68583797,9.29152217 L3.68583797,9.29152217 C3.78478664,5.63660565 6.77179963,2.70525129 10.4514533,2.70525129 C14.131107,2.70525129 17.2912801,5.80976583 17.2170686,9.60692105 C17.1490414,13.2432847 14.1620284,16.1993762 10.5318491,16.236482 L10.5380334,16.2426663 Z" id="形状" fill-rule="nonzero"></path>
            </g>
        </g>
    </g>
</svg>